<?xml version="1.0" standalone="no"?>
<!DOCTYPE svg PUBLIC "-//W3C//DTD SVG 20010904//EN"
 "http://www.w3.org/TR/2001/REC-SVG-20010904/DTD/svg10.dtd">
<svg version="1.0" xmlns="http://www.w3.org/2000/svg"
 width="2085.000000pt" height="2085.000000pt" viewBox="0 0 2085.000000 2085.000000"
 preserveAspectRatio="xMidYMid meet">
<metadata>
Created by potrace 1.11, written by Peter Selinger 2001-2013
</metadata>
<g transform="translate(0.000000,2085.000000) scale(0.100000,-0.100000)"
fill="#000000" stroke="none">
<path d="M7917 19464 c-1 -1 -58 -5 -127 -8 -134 -7 -170 -10 -295 -27 -128
-17 -145 -19 -246 -40 -52 -11 -106 -21 -119 -24 -56 -11 -288 -79 -393 -115
-671 -231 -1286 -672 -1738 -1245 -329 -418 -570 -916 -698 -1443 -33 -137
-44 -192 -45 -237 l-1 -30 6159 0 c4261 0 6160 3 6163 10 15 41 -120 551 -191
720 -7 17 -28 66 -46 110 -147 353 -369 713 -618 1003 -78 92 -312 326 -398
400 -140 121 -414 320 -519 378 -11 6 -49 28 -85 49 -369 215 -867 390 -1289
451 -25 4 -55 8 -66 10 -11 2 -45 6 -75 9 -30 4 -71 8 -90 10 -116 15 -542 17
-2788 19 -1372 0 -2494 0 -2495 0z"/>
<path d="M4199 15805 c-5 -4 -4 -132 5 -805 3 -190 5 -404 5 -475 l1 -130
6214 0 6215 0 -5 465 c-4 406 -12 920 -13 943 -1 8 -12414 10 -12422 2z"/>
<path d="M4267 13912 c-25 -3 -27 -6 -22 -35 11 -66 15 -94 25 -168 6 -41 12
-84 14 -95 2 -10 7 -41 10 -69 7 -50 10 -67 20 -138 4 -21 8 -59 11 -85 3 -26
8 -54 10 -62 2 -8 7 -40 10 -70 3 -30 8 -62 10 -70 2 -8 6 -33 9 -55 3 -22 11
-74 17 -115 6 -41 12 -86 14 -100 2 -14 13 -90 25 -170 11 -80 23 -161 26
-180 3 -19 7 -46 9 -60 3 -14 7 -47 11 -75 3 -27 8 -59 10 -69 2 -11 8 -56 14
-100 6 -45 13 -93 16 -108 2 -16 6 -40 8 -55 3 -16 10 -64 16 -108 6 -44 12
-91 15 -105 2 -14 6 -43 10 -65 3 -22 7 -53 10 -70 3 -16 7 -48 10 -70 3 -22
10 -71 16 -110 6 -38 12 -83 14 -100 3 -16 7 -48 10 -70 12 -75 24 -160 30
-211 3 -22 7 -46 10 -54 2 -8 6 -40 10 -70 3 -30 7 -66 10 -80 3 -14 8 -45 11
-70 3 -25 7 -56 9 -69 2 -13 7 -45 10 -70 4 -25 10 -68 15 -96 5 -27 12 -72
15 -100 3 -27 8 -61 10 -75 3 -14 7 -43 10 -65 9 -62 14 -97 20 -140 4 -22 8
-51 10 -65 2 -14 6 -45 10 -70 4 -25 8 -56 10 -70 14 -101 27 -189 30 -210 3
-14 7 -43 10 -65 9 -63 17 -119 20 -136 2 -9 6 -40 10 -70 3 -30 8 -61 10 -69
2 -8 7 -40 10 -70 3 -30 8 -62 10 -70 2 -8 6 -35 9 -60 3 -25 8 -56 11 -70 3
-14 7 -44 10 -67 6 -50 14 -109 20 -143 2 -14 7 -45 10 -70 3 -25 8 -56 10
-70 2 -14 7 -45 10 -70 4 -25 8 -56 10 -70 15 -93 25 -162 30 -205 3 -27 8
-61 10 -75 6 -33 13 -76 19 -125 3 -22 15 -103 26 -180 12 -77 23 -156 26
-175 2 -19 6 -48 9 -65 3 -16 7 -48 10 -70 4 -22 8 -51 11 -65 2 -14 6 -45 9
-70 3 -25 8 -54 10 -65 2 -11 7 -42 10 -70 3 -27 10 -75 15 -105 10 -60 16
-99 26 -175 3 -27 7 -57 9 -65 1 -8 6 -40 10 -70 4 -30 9 -64 11 -75 5 -23 15
-98 19 -135 2 -14 6 -43 9 -65 4 -22 9 -58 12 -80 4 -22 8 -49 10 -60 1 -11 8
-56 14 -100 12 -83 14 -99 26 -175 3 -25 8 -54 9 -65 15 -105 26 -184 30 -205
2 -14 9 -61 15 -105 6 -44 13 -91 15 -104 2 -13 7 -45 11 -70 3 -25 8 -57 10
-71 2 -14 7 -45 9 -70 3 -25 7 -54 10 -65 2 -11 7 -42 10 -70 4 -27 8 -57 10
-65 2 -8 7 -37 10 -65 3 -27 8 -61 10 -75 3 -14 7 -41 10 -60 2 -19 12 -84 20
-145 9 -60 18 -126 21 -145 5 -35 22 -155 29 -199 11 -68 21 -136 29 -206 4
-27 9 -61 11 -75 3 -14 7 -43 10 -65 3 -22 8 -51 10 -65 3 -14 7 -47 11 -75 3
-27 8 -59 10 -69 2 -11 8 -54 14 -95 6 -42 12 -87 14 -101 2 -14 7 -47 11 -73
4 -27 8 -57 10 -66 2 -10 6 -42 10 -72 3 -30 8 -61 10 -69 2 -8 6 -37 10 -65
3 -27 8 -61 10 -75 3 -14 7 -41 9 -60 3 -19 7 -53 10 -75 4 -22 9 -58 12 -80
4 -22 8 -49 10 -60 1 -11 15 -103 29 -205 14 -102 28 -198 31 -215 10 -65 13
-81 18 -120 3 -22 8 -58 11 -80 2 -22 7 -51 10 -65 3 -14 7 -47 10 -75 3 -27
8 -57 10 -65 2 -8 7 -37 10 -65 3 -27 7 -57 10 -65 2 -8 6 -42 9 -75 31 -326
179 -591 439 -788 76 -58 182 -118 250 -143 106 -38 128 -44 212 -60 83 -16
200 -17 1425 -15 734 1 2318 4 3521 6 1202 2 2205 6 2230 10 209 29 397 106
558 230 38 28 201 196 201 205 0 5 6 15 13 22 68 72 174 325 191 456 17 128
20 145 31 217 3 22 7 54 9 70 10 77 18 132 21 150 6 39 15 101 20 140 3 22 10
67 15 100 7 51 13 90 25 185 1 8 5 33 8 55 8 48 14 93 22 160 3 28 8 61 10 75
3 14 7 43 10 65 8 55 17 116 21 139 2 10 5 37 8 60 4 33 43 307 61 431 8 56
15 105 19 138 3 17 12 82 21 142 15 108 22 155 31 225 2 19 9 64 14 100 5 36
12 81 14 100 3 19 12 85 21 145 9 61 18 128 21 150 2 22 7 51 9 65 2 14 7 45
10 70 4 25 8 56 10 70 2 14 7 45 10 70 3 25 8 56 10 70 2 14 7 50 10 80 3 30
8 62 10 70 2 8 6 35 9 60 3 25 8 54 10 65 2 11 7 49 11 85 4 36 8 67 10 70 2
3 6 32 9 64 4 32 8 62 10 65 2 3 6 33 10 66 3 33 8 71 10 85 7 37 14 89 21
145 4 28 8 57 10 65 2 8 7 42 11 75 3 33 8 69 10 80 2 11 7 40 10 65 3 25 7
52 9 60 2 14 10 70 20 145 2 17 8 59 14 95 5 36 13 89 16 119 4 30 8 61 10 70
1 9 6 39 9 66 4 28 9 61 11 75 2 14 9 63 16 110 6 47 13 94 14 105 2 11 6 43
10 70 3 28 10 75 15 105 5 30 11 71 14 90 5 43 16 127 22 160 2 14 6 45 10 70
3 25 7 56 10 70 2 14 8 61 14 105 6 44 13 91 15 105 2 14 9 61 15 106 6 44 12
90 14 101 3 11 7 44 11 74 3 30 8 65 10 79 2 14 7 45 10 70 4 25 8 56 10 70 2
14 6 45 10 70 3 25 8 56 10 70 2 14 7 45 10 70 3 25 8 52 10 60 2 8 6 40 9 70
3 30 8 64 10 75 2 11 7 43 10 70 12 84 17 119 21 145 3 14 7 48 11 75 3 28 7
61 9 75 8 49 55 386 60 425 3 22 8 51 10 65 2 14 7 45 10 70 4 25 8 56 10 70
2 14 7 45 10 70 7 53 12 89 30 210 2 14 7 49 10 79 3 30 8 57 10 60 2 4 6 35
10 71 3 36 8 72 10 80 2 8 7 35 10 60 9 68 26 191 31 225 3 17 7 46 9 65 8 63
24 174 34 240 6 36 13 85 16 110 3 25 12 92 21 150 16 115 20 138 35 250 6 41
12 86 14 100 2 14 7 48 11 75 3 28 8 59 10 70 3 11 7 38 9 60 3 22 10 72 15
110 6 39 13 88 15 110 3 22 7 51 10 65 2 14 7 45 10 70 8 66 16 124 29 208 6
34 24 163 31 222 3 25 8 52 10 60 2 8 6 40 10 71 3 31 7 65 9 75 2 11 7 44 11
74 4 30 8 62 10 70 1 8 6 38 9 65 4 28 9 61 11 75 2 14 9 61 15 106 6 44 12
89 14 100 2 10 7 44 10 75 4 31 8 66 10 76 3 11 7 43 11 71 6 52 6 52 -22 53
-92 2 -12273 3 -12296 1z"/>
</g>
</svg>
