<svg xmlns="http://www.w3.org/2000/svg" width="500" height="500" viewBox="0 0 500 500" fill="none">
    <style>
        @media (prefers-color-scheme: dark) {
            #back {
                fill: #2b2c30;
            }

            #x {
                fill: #f0efec;
            }

            #v {
                stroke: #f0efec;
            }
        }
    </style>

    <rect width="500" height="500" fill="#F0EFEC" id="back"></rect>

    <path d="M160.535 225.647L88.8848 258.777V261.023L160.535 294.153V329.08L55.8672 273.489V246.312L160.535 190.608V225.647ZM340.223 225.647V190.608L444.891 246.312V273.489L340.223 329.08V294.153L411.761 261.023V258.777L340.223 225.647Z" fill="#A867A4" id="x"></path>

    <path d="M211.5 350C220.295 343.018 222.695 337.748 221.188 325.25C219.368 314.108 220.561 308.445 230.875 300.5C240.108 292.409 242.274 286.996 240.562 275.75C238.5 263.399 240.24 257.807 250.25 251C259.649 243.805 262.108 238.536 259.938 226.25C257.074 211.372 259.581 206.257 269.625 201.5C280.235 192.596 281.89 187.125 279.312 176.75C276.855 165.852 278.8 160.4 289 152" stroke="#A867A4" stroke-width="22" id="v"></path>
</svg>
